<svg xmlns="http://www.w3.org/2000/svg" xmlns:xlink="http://www.w3.org/1999/xlink" width="1024" zoomAndPan="magnify" viewBox="0 0 768 767.999994" height="1024" preserveAspectRatio="xMidYMid meet" version="1.0"><defs><clipPath id="7691a061fa"><path d="M 196.1875 196.1875 L 571.8125 196.1875 L 571.8125 571.8125 L 196.1875 571.8125 Z M 196.1875 196.1875 " clip-rule="nonzero"/></clipPath><clipPath id="613ecbf094"><path d="M 384 196.1875 C 280.273438 196.1875 196.1875 280.273438 196.1875 384 C 196.1875 487.726562 280.273438 571.8125 384 571.8125 C 487.726562 571.8125 571.8125 487.726562 571.8125 384 C 571.8125 280.273438 487.726562 196.1875 384 196.1875 Z M 384 196.1875 " clip-rule="nonzero"/></clipPath><clipPath id="70c0a2cfee"><path d="M 235.984375 235.984375 L 532.015625 235.984375 L 532.015625 532.015625 L 235.984375 532.015625 Z M 235.984375 235.984375 " clip-rule="nonzero"/></clipPath><clipPath id="f11fae6010"><path d="M 384 235.984375 C 302.253906 235.984375 235.984375 302.253906 235.984375 384 C 235.984375 465.746094 302.253906 532.015625 384 532.015625 C 465.746094 532.015625 532.015625 465.746094 532.015625 384 C 532.015625 302.253906 465.746094 235.984375 384 235.984375 Z M 384 235.984375 " clip-rule="nonzero"/></clipPath><clipPath id="ba1360411d"><path d="M 216.4375 372.125 L 551.5625 372.125 L 551.5625 395.863281 L 216.4375 395.863281 Z M 216.4375 372.125 " clip-rule="nonzero"/></clipPath><clipPath id="5734ac08fb"><path d="M 372.125 216.429688 L 395.863281 216.429688 L 395.863281 551.558594 L 372.125 551.558594 Z M 372.125 216.429688 " clip-rule="nonzero"/></clipPath><clipPath id="126a88ec54"><path d="M 327.949219 328.238281 L 433.808594 328.238281 L 433.808594 434.097656 L 327.949219 434.097656 Z M 327.949219 328.238281 " clip-rule="nonzero"/></clipPath><clipPath id="45ff6ba3c5"><path d="M 380.878906 328.238281 C 351.648438 328.238281 327.949219 351.933594 327.949219 381.167969 C 327.949219 410.402344 351.648438 434.097656 380.878906 434.097656 C 410.113281 434.097656 433.808594 410.402344 433.808594 381.167969 C 433.808594 351.933594 410.113281 328.238281 380.878906 328.238281 Z M 380.878906 328.238281 " clip-rule="nonzero"/></clipPath><clipPath id="2666787820"><path d="M 257 257 L 511 257 L 511 511 L 257 511 Z M 257 257 " clip-rule="nonzero"/></clipPath><clipPath id="4909a7e281"><path d="M 273.902344 510.871094 L 257.117188 494.085938 L 494.144531 257.054688 L 510.929688 273.839844 Z M 273.902344 510.871094 " clip-rule="nonzero"/></clipPath><clipPath id="771b17f897"><path d="M 273.902344 510.871094 L 257.117188 494.085938 L 494.089844 257.113281 L 510.875 273.898438 Z M 273.902344 510.871094 " clip-rule="nonzero"/></clipPath><clipPath id="3306e5ef05"><path d="M 248 266 L 520 266 L 520 502 L 248 502 Z M 248 266 " clip-rule="nonzero"/></clipPath><clipPath id="6e78b5500c"><path d="M 519.664062 483.046875 L 504.347656 501.183594 L 248.253906 284.894531 L 263.570312 266.757812 Z M 519.664062 483.046875 " clip-rule="nonzero"/></clipPath><clipPath id="5dceeccccd"><path d="M 519.664062 483.046875 L 504.347656 501.183594 L 248.316406 284.949219 L 263.632812 266.8125 Z M 519.664062 483.046875 " clip-rule="nonzero"/></clipPath></defs><g clip-path="url(#7691a061fa)"><g clip-path="url(#613ecbf094)"><path fill="#ffffff" d="M 196.1875 196.1875 L 571.8125 196.1875 L 571.8125 571.8125 L 196.1875 571.8125 Z M 196.1875 196.1875 " fill-opacity="1" fill-rule="nonzero"/></g></g><g clip-path="url(#70c0a2cfee)"><g clip-path="url(#f11fae6010)"><path fill="#d6d6d5" d="M 235.984375 235.984375 L 532.015625 235.984375 L 532.015625 532.015625 L 235.984375 532.015625 Z M 235.984375 235.984375 " fill-opacity="1" fill-rule="nonzero"/></g></g><g clip-path="url(#ba1360411d)"><path fill="#ffffff" d="M 216.4375 395.863281 L 216.4375 372.125 L 551.550781 372.125 L 551.550781 395.863281 Z M 216.4375 395.863281 " fill-opacity="1" fill-rule="nonzero"/></g><g clip-path="url(#5734ac08fb)"><path fill="#ffffff" d="M 395.863281 551.558594 L 372.125 551.558594 L 372.125 216.441406 L 395.863281 216.441406 Z M 395.863281 551.558594 " fill-opacity="1" fill-rule="nonzero"/></g><g clip-path="url(#126a88ec54)"><g clip-path="url(#45ff6ba3c5)"><path fill="#ffffff" d="M 327.949219 328.238281 L 433.808594 328.238281 L 433.808594 434.097656 L 327.949219 434.097656 Z M 327.949219 328.238281 " fill-opacity="1" fill-rule="nonzero"/></g></g><g clip-path="url(#2666787820)"><g clip-path="url(#4909a7e281)"><g clip-path="url(#771b17f897)"><path fill="#ffffff" d="M 273.902344 510.871094 L 257.117188 494.085938 L 494.082031 257.121094 L 510.867188 273.90625 Z M 273.902344 510.871094 " fill-opacity="1" fill-rule="nonzero"/></g></g></g><g clip-path="url(#3306e5ef05)"><g clip-path="url(#6e78b5500c)"><g clip-path="url(#5dceeccccd)"><path fill="#ffffff" d="M 519.664062 483.046875 L 504.347656 501.183594 L 248.324219 284.957031 L 263.640625 266.820312 Z M 519.664062 483.046875 " fill-opacity="1" fill-rule="nonzero"/></g></g></g></svg>