<svg xmlns="http://www.w3.org/2000/svg" xmlns:xlink="http://www.w3.org/1999/xlink" width="1024" zoomAndPan="magnify" viewBox="0 0 768 767.999994" height="1024" preserveAspectRatio="xMidYMid meet" version="1.0"><defs><clipPath id="24706e8c4f"><path d="M 115 144 L 653 144 L 653 625.328125 L 115 625.328125 Z M 115 144 " clip-rule="nonzero"/></clipPath></defs><path fill="#ffffff" d="M 311.628906 427.359375 C 307.386719 423.90625 303.34375 421.242188 299.789062 419.171875 C 282.625 452.417969 277.492188 479.648438 275.816406 495.535156 C 273.941406 512.304688 275.027344 523.058594 279.070312 533.417969 C 284.203125 546.835938 292.785156 555.71875 298.3125 560.550781 C 294.464844 545.652344 291.898438 526.21875 295.054688 504.414062 C 297.917969 484.582031 304.527344 469.488281 308.375 460.902344 C 312.914062 450.644531 317.648438 442.453125 321.398438 436.632812 C 318.636719 433.574219 315.476562 430.417969 311.628906 427.359375 Z M 311.628906 427.359375 " fill-opacity="1" fill-rule="nonzero"/><path fill="#ffffff" d="M 468.304688 419.070312 C 464.652344 421.242188 460.609375 423.90625 456.464844 427.261719 C 452.617188 430.417969 449.359375 433.476562 446.695312 436.335938 C 450.445312 442.160156 455.183594 450.347656 459.71875 460.609375 C 463.566406 469.289062 470.179688 484.285156 473.039062 504.117188 C 476.195312 526.019531 473.632812 545.359375 469.785156 560.253906 C 475.308594 555.421875 483.890625 546.542969 489.023438 533.125 C 492.96875 522.863281 494.152344 512.109375 492.277344 495.238281 C 490.601562 479.648438 485.472656 452.320312 468.304688 419.070312 Z M 468.304688 419.070312 " fill-opacity="1" fill-rule="nonzero"/><g clip-path="url(#24706e8c4f)"><path fill="#ffffff" d="M 649.148438 260.03125 C 645.5 245.035156 636.914062 212.96875 608.699219 182.089844 C 595.972656 168.078125 580.085938 150.714844 554.433594 145.484375 C 539.042969 142.328125 525.527344 144.695312 506.289062 148.050781 C 487.34375 151.304688 472.054688 156.335938 461.695312 160.285156 C 446.695312 155.84375 429.136719 151.800781 409.402344 149.035156 C 400.523438 147.851562 392.136719 147.0625 384.046875 146.472656 C 375.957031 146.964844 367.570312 147.753906 358.691406 149.035156 C 338.960938 151.699219 321.398438 155.84375 306.402344 160.285156 C 296.042969 156.335938 280.75 151.40625 261.804688 148.050781 C 242.46875 144.695312 228.953125 142.328125 213.5625 145.484375 C 188.007812 150.714844 172.125 168.078125 159.296875 182.089844 C 131.082031 212.96875 122.398438 245.132812 118.847656 260.03125 C 113.222656 283.511719 115.296875 296.042969 116.578125 301.765625 C 118.550781 310.445312 122.398438 327.414062 136.113281 336.097656 C 152.195312 346.261719 165.21875 334.714844 177.15625 346.0625 C 182.679688 351.390625 181.398438 355.238281 193.238281 370.136719 C 199.847656 378.421875 202.609375 380.199219 204.1875 381.085938 C 214.449219 386.710938 220.269531 380.398438 228.855469 384.34375 C 242.273438 390.460938 239.707031 410.980469 250.066406 412.855469 C 255.691406 413.84375 261.015625 408.710938 263.878906 405.753906 C 274.929688 394.800781 273.25 378.226562 272.855469 374.96875 C 271.671875 363.425781 266.246094 355.140625 259.636719 346.0625 C 236.648438 314.292969 226.980469 311.726562 212.773438 290.21875 C 205.273438 278.777344 196.195312 264.570312 193.828125 244.34375 C 193.335938 237.734375 189.390625 204.089844 209.417969 190.375 C 217.410156 184.949219 225.894531 184.949219 237.042969 184.949219 C 247.5 184.949219 272.066406 185.046875 280.652344 200.636719 C 285.976562 210.207031 282.820312 221.355469 281.933594 224.710938 C 278.085938 238.621094 269.007812 240.496094 263.285156 253.617188 C 258.058594 265.652344 259.933594 277.097656 261.3125 285.386719 C 265.457031 310.25 280.15625 318.238281 289.234375 336.789062 C 296.042969 350.601562 300.976562 372.699219 290.222656 408.023438 C 296.140625 408.8125 306.203125 411.179688 315.28125 418.578125 C 317.648438 420.550781 327.121094 428.640625 334.222656 452.617188 C 340.042969 472.152344 340.042969 488.132812 340.042969 489.515625 C 340.042969 501.355469 347.9375 546.34375 354.449219 581.269531 C 355.4375 586.695312 358.789062 594.195312 361.847656 600.214844 C 365.5 607.414062 371.023438 613.632812 377.832031 618.070312 C 377.929688 618.167969 378.027344 618.167969 378.027344 618.167969 C 384.738281 622.609375 396.875 625.667969 404.863281 625.074219 C 430.617188 623.199219 440.085938 611.855469 445.019531 599.820312 C 446.992188 594.785156 450.148438 583.441406 446.695312 564.003906 C 445.019531 568.640625 443.046875 575.351562 437.917969 581.960938 C 432.589844 588.867188 426.371094 597.054688 419.960938 595.871094 C 418.972656 595.675781 417.988281 595.28125 417 594.6875 C 413.644531 592.515625 412.164062 588.273438 412.953125 584.328125 C 419.566406 549.007812 427.953125 501.75 427.953125 489.515625 C 427.953125 488.132812 427.953125 472.152344 433.773438 452.617188 C 440.875 428.742188 450.347656 420.550781 452.714844 418.578125 C 461.792969 411.179688 471.855469 408.8125 477.773438 408.023438 C 467.019531 372.699219 471.953125 350.601562 478.761719 336.789062 C 487.839844 318.238281 502.539062 310.25 506.683594 285.386719 C 508.0625 277.097656 510.039062 265.554688 504.808594 253.617188 C 499.085938 240.496094 490.007812 238.71875 486.160156 224.710938 C 485.273438 221.453125 482.117188 210.207031 487.445312 200.636719 C 496.027344 184.949219 520.59375 184.949219 531.050781 184.949219 C 542.101562 184.949219 550.585938 184.949219 558.675781 190.375 C 578.707031 204.089844 574.859375 237.734375 574.066406 244.34375 C 571.800781 264.667969 562.625 278.777344 555.125 290.21875 C 541.015625 311.730469 531.347656 314.292969 508.261719 346.0625 C 501.652344 355.140625 496.324219 363.425781 495.140625 374.96875 C 494.746094 378.226562 493.066406 394.800781 504.117188 405.753906 C 507.078125 408.613281 512.304688 413.84375 517.929688 412.855469 C 528.289062 410.980469 525.625 390.359375 539.140625 384.34375 C 547.824219 380.398438 553.644531 386.808594 563.808594 381.085938 C 565.386719 380.199219 568.148438 378.523438 574.757812 370.136719 C 586.597656 355.238281 585.21875 351.390625 590.839844 346.0625 C 602.878906 334.714844 615.902344 346.261719 631.882812 336.097656 C 645.597656 327.414062 649.445312 310.445312 651.417969 301.765625 C 652.601562 296.042969 654.773438 283.609375 649.148438 260.03125 Z M 316.464844 334.816406 C 316.957031 331.363281 317.550781 323.960938 314.097656 315.871094 C 312.222656 311.433594 309.65625 308.175781 307.683594 306.105469 C 298.210938 308.671875 289.824219 303.835938 288.445312 297.71875 C 287.359375 293.179688 289.925781 287.359375 294.5625 285.386719 C 300.285156 282.917969 306.5 287.753906 308.375 289.234375 C 317.453125 296.4375 318.339844 308.964844 318.832031 315.183594 C 319.03125 319.71875 318.929688 326.527344 316.464844 334.816406 Z M 392.925781 555.027344 C 389.96875 554.335938 387.007812 554.136719 384.046875 554.039062 C 381.085938 554.039062 378.027344 554.335938 375.167969 555.027344 C 372.207031 555.71875 369.347656 556.703125 366.683594 558.777344 C 367.667969 555.421875 370.726562 552.855469 373.886719 551.375 C 377.042969 549.796875 380.59375 549.105469 384.144531 549.105469 C 387.699219 549.105469 391.25 549.894531 394.40625 551.375 C 397.5625 552.953125 400.523438 555.421875 401.609375 558.777344 C 398.746094 556.703125 395.886719 555.71875 392.925781 555.027344 Z M 394.898438 536.972656 C 391.347656 536.082031 387.699219 535.789062 384.046875 535.6875 C 380.398438 535.6875 376.746094 536.082031 373.195312 536.972656 C 369.644531 537.957031 366.191406 539.242188 363.132812 541.90625 C 364.511719 537.957031 368.164062 535.097656 371.910156 533.320312 C 375.761719 531.546875 380.003906 530.753906 384.144531 530.753906 C 388.289062 530.753906 392.53125 531.546875 396.378906 533.320312 C 400.128906 535.097656 403.78125 537.957031 405.160156 541.90625 C 401.90625 539.242188 398.453125 537.859375 394.898438 536.972656 Z M 396.972656 508.753906 C 392.730469 507.570312 388.386719 507.175781 384.046875 507.078125 C 379.707031 507.175781 375.363281 507.570312 371.121094 508.753906 C 366.878906 509.9375 362.835938 511.617188 359.382812 514.871094 C 361.15625 510.332031 365.402344 507.078125 369.839844 505.105469 C 374.28125 503.03125 379.214844 502.144531 384.046875 502.144531 C 388.882812 502.144531 393.816406 503.128906 398.351562 505.105469 C 402.792969 507.078125 406.9375 510.429688 408.710938 514.871094 C 405.160156 511.617188 401.117188 509.9375 396.972656 508.753906 Z M 399.140625 468.699219 C 394.210938 467.515625 389.078125 467.019531 384.046875 466.921875 C 379.015625 466.921875 373.886719 467.414062 368.953125 468.699219 C 364.019531 469.882812 359.183594 471.757812 354.746094 475.308594 C 355.632812 472.546875 357.410156 470.179688 359.578125 468.105469 C 361.75 466.132812 364.214844 464.457031 366.878906 463.171875 C 372.207031 460.609375 378.128906 459.523438 384.046875 459.425781 C 389.867188 459.425781 395.886719 460.609375 401.214844 463.171875 C 403.878906 464.457031 406.34375 466.132812 408.515625 468.105469 C 410.585938 470.179688 412.460938 472.546875 413.347656 475.308594 C 408.910156 471.757812 404.074219 469.882812 399.140625 468.699219 Z M 399.140625 431.699219 C 394.210938 430.515625 389.078125 430.023438 384.046875 429.925781 C 379.015625 429.925781 373.886719 430.417969 368.953125 431.699219 C 364.019531 432.882812 359.183594 434.757812 354.746094 438.308594 C 355.632812 435.546875 357.410156 433.179688 359.578125 431.109375 C 361.75 429.136719 364.214844 427.457031 366.878906 426.175781 C 372.207031 423.609375 378.128906 422.523438 384.046875 422.425781 C 389.867188 422.425781 395.886719 423.609375 401.214844 426.175781 C 403.878906 427.457031 406.34375 429.136719 408.515625 431.109375 C 410.585938 433.179688 412.460938 435.546875 413.347656 438.308594 C 408.910156 434.660156 404.074219 432.882812 399.140625 431.699219 Z M 401.707031 398.058594 C 395.984375 396.578125 390.066406 395.886719 384.046875 395.886719 C 378.128906 395.886719 372.109375 396.578125 366.386719 398.058594 C 360.566406 399.636719 355.042969 401.90625 350.109375 406.148438 C 351.191406 402.988281 353.363281 400.324219 355.832031 397.957031 C 358.394531 395.6875 361.257812 393.8125 364.316406 392.433594 C 370.433594 389.570312 377.238281 388.289062 384.046875 388.289062 C 390.757812 388.289062 397.5625 389.570312 403.78125 392.433594 C 406.839844 393.8125 409.699219 395.6875 412.265625 397.957031 C 414.730469 400.226562 416.902344 402.988281 417.988281 406.148438 C 413.054688 401.804688 407.429688 399.535156 401.707031 398.058594 Z M 401.707031 360.863281 C 395.984375 359.382812 390.066406 358.789062 384.046875 358.691406 C 378.128906 358.691406 372.109375 359.382812 366.386719 360.863281 C 360.566406 362.339844 355.042969 364.609375 350.109375 368.953125 C 351.191406 365.792969 353.363281 363.128906 355.832031 360.863281 C 358.394531 358.59375 361.257812 356.71875 364.316406 355.335938 C 370.433594 352.476562 377.238281 351.191406 384.046875 351.191406 C 390.757812 351.191406 397.5625 352.476562 403.78125 355.335938 C 406.839844 356.71875 409.699219 358.59375 412.265625 360.863281 C 414.730469 363.128906 416.902344 365.894531 417.988281 369.050781 C 413.054688 364.710938 407.429688 362.441406 401.707031 360.863281 Z M 401.707031 323.765625 C 395.984375 322.285156 390.066406 321.691406 384.046875 321.59375 C 378.128906 321.59375 372.109375 322.285156 366.386719 323.765625 C 360.566406 325.34375 355.042969 327.515625 350.109375 331.855469 C 351.191406 328.699219 353.363281 326.035156 355.832031 323.765625 C 358.394531 321.496094 361.257812 319.621094 364.316406 318.238281 C 370.433594 315.378906 377.238281 314.097656 384.046875 314.097656 C 390.757812 314.097656 397.5625 315.378906 403.78125 318.238281 C 406.839844 319.621094 409.699219 321.496094 412.265625 323.765625 C 414.730469 326.035156 416.902344 328.796875 417.988281 331.855469 C 413.054688 327.515625 407.429688 325.246094 401.707031 323.765625 Z M 479.648438 297.71875 C 478.269531 303.835938 469.882812 308.671875 460.410156 306.105469 C 458.4375 308.175781 455.871094 311.433594 453.996094 315.871094 C 450.542969 323.960938 451.039062 331.261719 451.628906 334.816406 C 449.164062 326.527344 449.066406 319.71875 449.359375 315.28125 C 449.753906 309.066406 450.644531 296.4375 459.820312 289.332031 C 461.695312 287.851562 467.910156 283.019531 473.632812 285.484375 C 478.167969 287.359375 480.734375 293.179688 479.648438 297.71875 Z M 479.648438 297.71875 " fill-opacity="1" fill-rule="nonzero"/></g></svg>