<svg xmlns="http://www.w3.org/2000/svg" xmlns:xlink="http://www.w3.org/1999/xlink" width="1024" zoomAndPan="magnify" viewBox="0 0 768 767.999994" height="1024" preserveAspectRatio="xMidYMid meet" version="1.0"><path fill="#000000" d="M 311.609375 427.160156 C 307.367188 423.707031 303.320312 421.046875 299.769531 418.976562 C 282.605469 452.199219 277.476562 479.414062 275.796875 495.285156 C 273.925781 512.046875 275.007812 522.792969 279.054688 533.144531 C 284.183594 546.554688 292.765625 555.425781 298.289062 560.257812 C 294.445312 545.371094 291.878906 525.949219 295.035156 504.160156 C 297.894531 484.34375 304.507812 469.257812 308.351562 460.679688 C 312.890625 450.425781 317.625 442.242188 321.375 436.425781 C 318.613281 433.371094 315.457031 430.214844 311.609375 427.160156 Z M 311.609375 427.160156 " fill-opacity="1" fill-rule="nonzero"/><path fill="#000000" d="M 468.265625 418.878906 C 464.617188 421.046875 460.570312 423.707031 456.425781 427.058594 C 452.578125 430.214844 449.324219 433.269531 446.660156 436.128906 C 450.410156 441.949219 455.144531 450.128906 459.683594 460.382812 C 463.53125 469.058594 470.140625 484.046875 473 503.863281 C 476.15625 525.75 473.59375 545.074219 469.746094 559.960938 C 475.269531 555.128906 483.851562 546.257812 488.980469 532.847656 C 492.929688 522.59375 494.113281 511.847656 492.238281 494.988281 C 490.558594 479.414062 485.429688 452.101562 468.265625 418.878906 Z M 468.265625 418.878906 " fill-opacity="1" fill-rule="nonzero"/><path fill="#000000" d="M 649.089844 259.949219 C 645.441406 244.960938 636.859375 212.917969 608.644531 182.058594 C 595.917969 168.058594 580.035156 150.707031 554.386719 145.484375 C 538.996094 142.328125 525.484375 144.695312 506.246094 148.046875 C 487.304688 151.300781 472.015625 156.328125 461.65625 160.269531 C 446.660156 155.835938 429.101562 151.792969 409.371094 149.03125 C 400.492188 147.847656 392.105469 147.058594 384.019531 146.46875 C 375.929688 146.960938 367.542969 147.75 358.664062 149.03125 C 338.933594 151.695312 321.375 155.835938 306.378906 160.269531 C 296.023438 156.328125 280.730469 151.398438 261.789062 148.046875 C 242.453125 144.695312 228.941406 142.328125 213.550781 145.484375 C 188 150.707031 172.117188 168.058594 159.292969 182.058594 C 131.078125 212.917969 122.398438 245.058594 118.847656 259.949219 C 113.222656 283.414062 115.292969 295.933594 116.578125 301.652344 C 118.550781 310.328125 122.398438 327.285156 136.109375 335.960938 C 152.191406 346.117188 165.210938 334.582031 177.148438 345.917969 C 182.671875 351.242188 181.390625 355.089844 193.226562 369.976562 C 199.839844 378.257812 202.601562 380.03125 204.179688 380.917969 C 214.4375 386.539062 220.257812 380.230469 228.839844 384.171875 C 242.257812 390.285156 239.691406 410.792969 250.050781 412.664062 C 255.675781 413.652344 261 408.523438 263.863281 405.566406 C 274.910156 394.625 273.234375 378.058594 272.839844 374.804688 C 271.65625 363.269531 266.230469 354.988281 259.621094 345.917969 C 236.632812 314.171875 226.96875 311.609375 212.761719 290.117188 C 205.265625 278.679688 196.1875 264.484375 193.820312 244.269531 C 193.328125 237.664062 189.382812 204.046875 209.40625 190.34375 C 217.398438 184.917969 225.882812 184.917969 237.027344 184.917969 C 247.484375 184.917969 272.050781 185.019531 280.632812 200.59375 C 285.960938 210.160156 282.804688 221.300781 281.914062 224.652344 C 278.066406 238.554688 268.992188 240.425781 263.269531 253.539062 C 258.042969 265.566406 259.917969 277.003906 261.296875 285.285156 C 265.441406 310.128906 280.140625 318.117188 289.214844 336.652344 C 296.023438 350.453125 300.953125 372.539062 290.203125 407.835938 C 296.121094 408.625 306.183594 410.988281 315.257812 418.382812 C 317.625 420.355469 327.097656 428.441406 334.199219 452.398438 C 340.019531 471.917969 340.019531 487.890625 340.019531 489.269531 C 340.019531 501.101562 347.910156 546.058594 354.421875 580.960938 C 355.410156 586.382812 358.761719 593.878906 361.820312 599.890625 C 365.472656 607.089844 370.996094 613.300781 377.804688 617.734375 C 377.902344 617.835938 378 617.835938 378 617.835938 C 384.707031 622.269531 396.84375 625.328125 404.832031 624.734375 C 430.582031 622.863281 440.050781 611.523438 444.984375 599.496094 C 446.957031 594.46875 450.113281 583.128906 446.660156 563.707031 C 444.984375 568.34375 443.011719 575.046875 437.882812 581.652344 C 432.554688 588.554688 426.339844 596.734375 419.925781 595.554688 C 418.941406 595.355469 417.953125 594.960938 416.96875 594.371094 C 413.613281 592.199219 412.132812 587.960938 412.921875 584.019531 C 419.53125 548.722656 427.917969 501.496094 427.917969 489.269531 C 427.917969 487.890625 427.917969 471.917969 433.738281 452.398438 C 440.839844 428.539062 450.3125 420.355469 452.679688 418.382812 C 461.753906 410.988281 471.816406 408.625 477.734375 407.835938 C 466.984375 372.539062 471.914062 350.453125 478.722656 336.652344 C 487.796875 318.117188 502.496094 310.128906 506.640625 285.285156 C 508.019531 277.003906 509.996094 265.46875 504.765625 253.539062 C 499.042969 240.425781 489.96875 238.652344 486.121094 224.652344 C 485.234375 221.398438 482.078125 210.160156 487.402344 200.59375 C 495.984375 184.917969 520.550781 184.917969 531.007812 184.917969 C 542.054688 184.917969 550.539062 184.917969 558.628906 190.34375 C 578.65625 204.046875 574.808594 237.664062 574.019531 244.269531 C 571.75 264.582031 562.574219 278.679688 555.078125 290.117188 C 540.96875 311.609375 531.304688 314.171875 508.21875 345.917969 C 501.609375 354.988281 496.28125 363.269531 495.097656 374.804688 C 494.703125 378.058594 493.027344 394.625 504.074219 405.566406 C 507.035156 408.425781 512.261719 413.652344 517.886719 412.664062 C 528.246094 410.792969 525.582031 390.1875 539.097656 384.171875 C 547.777344 380.230469 553.597656 386.636719 563.757812 380.917969 C 565.335938 380.03125 568.097656 378.355469 574.710938 369.976562 C 586.546875 355.089844 585.164062 351.242188 590.789062 345.917969 C 602.824219 334.582031 615.847656 346.117188 631.828125 335.960938 C 645.539062 327.285156 649.386719 310.328125 651.359375 301.652344 C 652.542969 295.933594 654.714844 283.511719 649.089844 259.949219 Z M 316.441406 334.679688 C 316.9375 331.230469 317.527344 323.835938 314.074219 315.75 C 312.199219 311.3125 309.636719 308.058594 307.664062 305.988281 C 298.191406 308.554688 289.808594 303.722656 288.425781 297.609375 C 287.339844 293.074219 289.90625 287.257812 294.542969 285.285156 C 300.265625 282.820312 306.480469 287.652344 308.351562 289.128906 C 317.429688 296.328125 318.316406 308.847656 318.808594 315.058594 C 319.007812 319.59375 318.910156 326.398438 316.441406 334.679688 Z M 392.898438 554.734375 C 389.9375 554.046875 386.976562 553.847656 384.019531 553.75 C 381.058594 553.75 378 554.046875 375.140625 554.734375 C 372.179688 555.425781 369.320312 556.414062 366.65625 558.484375 C 367.640625 555.128906 370.699219 552.566406 373.855469 551.089844 C 377.015625 549.511719 380.566406 548.820312 384.117188 548.820312 C 387.667969 548.820312 391.21875 549.609375 394.375 551.089844 C 397.53125 552.664062 400.492188 555.128906 401.578125 558.484375 C 398.71875 556.414062 395.855469 555.425781 392.898438 554.734375 Z M 394.871094 536.695312 C 391.316406 535.804688 387.667969 535.511719 384.019531 535.414062 C 380.367188 535.414062 376.71875 535.804688 373.167969 536.695312 C 369.613281 537.679688 366.164062 538.960938 363.105469 541.625 C 364.484375 537.679688 368.136719 534.820312 371.882812 533.046875 C 375.730469 531.269531 379.972656 530.484375 384.117188 530.484375 C 388.261719 530.484375 392.5 531.269531 396.347656 533.046875 C 400.097656 534.820312 403.75 537.679688 405.128906 541.625 C 401.875 538.960938 398.421875 537.582031 394.871094 536.695312 Z M 396.941406 508.496094 C 392.699219 507.3125 388.359375 506.917969 384.019531 506.820312 C 379.675781 506.917969 375.335938 507.3125 371.09375 508.496094 C 366.851562 509.679688 362.808594 511.355469 359.355469 514.609375 C 361.132812 510.074219 365.375 506.820312 369.8125 504.847656 C 374.25 502.777344 379.183594 501.890625 384.019531 501.890625 C 388.851562 501.890625 393.785156 502.878906 398.324219 504.847656 C 402.761719 506.820312 406.90625 510.171875 408.679688 514.609375 C 405.128906 511.355469 401.085938 509.679688 396.941406 508.496094 Z M 399.113281 468.46875 C 394.179688 467.285156 389.050781 466.792969 384.019531 466.695312 C 378.988281 466.695312 373.855469 467.1875 368.925781 468.46875 C 363.992188 469.652344 359.15625 471.523438 354.71875 475.074219 C 355.605469 472.3125 357.382812 469.949219 359.554688 467.878906 C 361.722656 465.90625 364.1875 464.230469 366.851562 462.949219 C 372.179688 460.382812 378.097656 459.300781 384.019531 459.199219 C 389.839844 459.199219 395.855469 460.382812 401.183594 462.949219 C 403.847656 464.230469 406.3125 465.90625 408.484375 467.878906 C 410.554688 469.949219 412.429688 472.3125 413.316406 475.074219 C 408.878906 471.523438 404.042969 469.652344 399.113281 468.46875 Z M 399.113281 431.496094 C 394.179688 430.3125 389.050781 429.820312 384.019531 429.722656 C 378.988281 429.722656 373.855469 430.214844 368.925781 431.496094 C 363.992188 432.679688 359.15625 434.554688 354.71875 438.101562 C 355.605469 435.34375 357.382812 432.976562 359.554688 430.90625 C 361.722656 428.933594 364.1875 427.257812 366.851562 425.976562 C 372.179688 423.414062 378.097656 422.328125 384.019531 422.230469 C 389.839844 422.230469 395.855469 423.414062 401.183594 425.976562 C 403.847656 427.257812 406.3125 428.933594 408.484375 430.90625 C 410.554688 432.976562 412.429688 435.34375 413.316406 438.101562 C 408.878906 434.453125 404.042969 432.679688 399.113281 431.496094 Z M 401.675781 397.878906 C 395.953125 396.398438 390.035156 395.707031 384.019531 395.707031 C 378.097656 395.707031 372.082031 396.398438 366.359375 397.878906 C 360.539062 399.453125 355.015625 401.722656 350.082031 405.960938 C 351.167969 402.804688 353.335938 400.144531 355.804688 397.777344 C 358.367188 395.511719 361.230469 393.636719 364.289062 392.257812 C 370.40625 389.398438 377.210938 388.117188 384.019531 388.117188 C 390.726562 388.117188 397.53125 389.398438 403.75 392.257812 C 406.804688 393.636719 409.667969 395.511719 412.230469 397.777344 C 414.699219 400.046875 416.867188 402.804688 417.953125 405.960938 C 413.019531 401.625 407.398438 399.355469 401.675781 397.878906 Z M 401.675781 360.707031 C 395.953125 359.230469 390.035156 358.636719 384.019531 358.539062 C 378.097656 358.539062 372.082031 359.230469 366.359375 360.707031 C 360.539062 362.1875 355.015625 364.453125 350.082031 368.792969 C 351.167969 365.636719 353.335938 362.976562 355.804688 360.707031 C 358.367188 358.441406 361.230469 356.566406 364.289062 355.1875 C 370.40625 352.328125 377.210938 351.046875 384.019531 351.046875 C 390.726562 351.046875 397.53125 352.328125 403.75 355.1875 C 406.804688 356.566406 409.667969 358.441406 412.230469 360.707031 C 414.699219 362.976562 416.867188 365.734375 417.953125 368.890625 C 413.019531 364.554688 407.398438 362.285156 401.675781 360.707031 Z M 401.675781 323.636719 C 395.953125 322.160156 390.035156 321.566406 384.019531 321.46875 C 378.097656 321.46875 372.082031 322.160156 366.359375 323.636719 C 360.539062 325.214844 355.015625 327.382812 350.082031 331.722656 C 351.167969 328.566406 353.335938 325.90625 355.804688 323.636719 C 358.367188 321.371094 361.230469 319.496094 364.289062 318.117188 C 370.40625 315.257812 377.210938 313.976562 384.019531 313.976562 C 390.726562 313.976562 397.53125 315.257812 403.75 318.117188 C 406.804688 319.496094 409.667969 321.371094 412.230469 323.636719 C 414.699219 325.90625 416.867188 328.664062 417.953125 331.722656 C 413.019531 327.382812 407.398438 325.117188 401.675781 323.636719 Z M 479.609375 297.609375 C 478.230469 303.722656 469.84375 308.554688 460.375 305.988281 C 458.398438 308.058594 455.835938 311.3125 453.960938 315.75 C 450.507812 323.835938 451 331.128906 451.59375 334.679688 C 449.128906 326.398438 449.027344 319.59375 449.324219 315.160156 C 449.71875 308.949219 450.605469 296.328125 459.78125 289.230469 C 461.65625 287.75 467.871094 282.917969 473.59375 285.382812 C 478.128906 287.257812 480.695312 293.074219 479.609375 297.609375 Z M 479.609375 297.609375 " fill-opacity="1" fill-rule="nonzero"/></svg>