<svg xmlns="http://www.w3.org/2000/svg" xmlns:xlink="http://www.w3.org/1999/xlink" width="1024" zoomAndPan="magnify" viewBox="0 0 768 767.999994" height="1024" preserveAspectRatio="xMidYMid meet" version="1.0"><defs><clipPath id="4077a5485a"><path d="M 146 167 L 620 167 L 620 604.660156 L 146 604.660156 Z M 146 167 " clip-rule="nonzero"/></clipPath></defs><path fill="#231f20" d="M 279.132812 278.710938 C 239.539062 291.625 253.070312 315.695312 253.070312 315.695312 C 288.761719 312.5625 293.4375 281.96875 294.050781 273.773438 C 290.628906 274.964844 285.925781 276.527344 279.570312 278.566406 C 279.425781 278.613281 279.277344 278.664062 279.132812 278.710938 " fill-opacity="1" fill-rule="nonzero"/><path fill="#231f20" d="M 194.007812 410.777344 C 194.007812 415.851562 189.898438 419.960938 184.828125 419.960938 C 179.757812 419.960938 175.648438 415.851562 175.648438 410.777344 C 175.648438 405.703125 179.757812 401.59375 184.828125 401.59375 C 189.898438 401.59375 194.007812 405.703125 194.007812 410.777344 " fill-opacity="1" fill-rule="nonzero"/><g clip-path="url(#4077a5485a)"><path fill="#231f20" d="M 614.886719 521.027344 C 614.625 520.714844 613.292969 519.148438 610.59375 516.769531 C 594.34375 500.109375 529.140625 439.6875 435.890625 436.925781 C 435.773438 436.921875 435.660156 436.917969 435.542969 436.917969 C 433.765625 436.917969 432.101562 437.371094 430.59375 438.105469 C 431.789062 438.339844 484.566406 448.65625 519.960938 480.632812 C 500.675781 477.257812 477.835938 474.925781 450.902344 474.425781 C 374.640625 472.90625 318.664062 503.476562 285.660156 528.648438 C 298.574219 507.496094 318.148438 488.554688 337.316406 470.007812 C 347.097656 460.539062 356.339844 451.597656 364.816406 442.304688 C 382.789062 422.597656 385.847656 397.808594 383.605469 376.074219 C 383.605469 376.074219 383.402344 332.074219 345.636719 311.621094 C 345.636719 311.621094 360.257812 349.996094 346.007812 371.441406 C 336.378906 385.460938 314.710938 394.21875 288.003906 394.871094 C 247.359375 395.863281 229.570312 424.480469 224.695312 442.910156 C 205.417969 456.847656 192.753906 452.027344 191.5 451.496094 C 188.988281 450.152344 184.976562 447.347656 182.945312 445.507812 L 169.371094 433.222656 C 169.164062 432.890625 168.929688 432.222656 168.890625 431.832031 C 168.339844 426.59375 171.027344 421.824219 170.246094 416.453125 C 169.273438 409.730469 167.570312 405.261719 171.394531 399.242188 C 174.488281 394.382812 181.234375 394.550781 183.988281 390.363281 C 196.808594 370.835938 209.640625 351.320312 222.46875 331.800781 C 225.773438 326.773438 228.082031 319.058594 228.082031 313.039062 L 228.082031 298.265625 C 228.082031 296.726562 229.117188 293.257812 229.957031 291.964844 L 263.382812 240.871094 C 266.96875 235.390625 268.8125 227.035156 267.867188 220.550781 L 263.609375 191.402344 C 293.671875 195.128906 312.546875 225.015625 312.546875 225.015625 C 312.546875 225.015625 314.011719 224.839844 316.722656 224.640625 L 319.96875 224.351562 C 320.859375 224.269531 395.917969 218.121094 464 254.773438 C 519.957031 283.828125 575.058594 339.671875 596.890625 446.183594 C 597.125 445.117188 597.261719 444.019531 597.179688 442.875 C 591.171875 364.050781 563.085938 302.90625 513.699219 261.152344 C 442.945312 201.320312 351.25 200.226562 325.042969 201.28125 C 290.835938 163.875 242.078125 165.789062 238.871094 169.558594 C 235.664062 173.328125 239.433594 183.078125 240.167969 188.085938 L 245.386719 223.820312 C 245.511719 224.886719 244.929688 227.519531 244.375 228.421875 L 210.953125 279.519531 C 207.714844 284.464844 205.367188 292.351562 205.367188 298.265625 L 205.367188 313.039062 C 205.367188 314.574219 204.332031 318.03125 203.492188 319.3125 C 190.703125 338.769531 177.921875 358.230469 165.132812 377.683594 C 161.175781 383.707031 153.378906 385.945312 150.210938 392.527344 C 147 399.191406 150.164062 407.335938 148.761719 414.390625 C 147.847656 419.003906 147.214844 423.6875 146.445312 428.324219 C 145.1875 435.890625 148.277344 444.773438 153.960938 449.921875 L 167.707031 462.363281 C 171.195312 465.523438 176.980469 469.554688 181.167969 471.742188 C 182.253906 472.308594 208.207031 485.34375 241.992188 458.292969 L 245.40625 455.558594 L 246.105469 451.242188 C 246.324219 449.902344 251.835938 418.488281 288.554688 417.59375 C 320.042969 416.824219 346.796875 406.085938 361.488281 388.574219 C 361.40625 402.175781 358.023438 416.03125 348.035156 426.984375 C 340.039062 435.75 331.992188 445.546875 321.523438 453.671875 C 230.355469 524.425781 244.789062 604.429688 244.789062 604.429688 L 268.6875 575.171875 C 269.335938 574.382812 333.773438 497.109375 445.929688 497.109375 C 447.433594 497.109375 448.960938 497.125 450.480469 497.152344 C 546.046875 498.925781 584.519531 524.566406 594.535156 532.898438 C 596.375 534.769531 597.363281 535.859375 597.4375 535.945312 C 605.796875 545.398438 612.671875 541.3125 615.238281 539.117188 C 617.808594 536.921875 622.910156 530.769531 614.886719 521.027344 " fill-opacity="1" fill-rule="nonzero"/></g></svg>