<svg xmlns="http://www.w3.org/2000/svg" xmlns:xlink="http://www.w3.org/1999/xlink" width="1024" zoomAndPan="magnify" viewBox="0 0 768 767.999994" height="1024" preserveAspectRatio="xMidYMid meet" version="1.0"><defs><clipPath id="0b9e90421d"><path d="M 149.613281 122.84375 L 618.363281 122.84375 L 618.363281 642 L 149.613281 642 Z M 149.613281 122.84375 " clip-rule="nonzero"/></clipPath></defs><g clip-path="url(#0b9e90421d)"><path fill="#ffffff" d="M 309.917969 228.789062 C 308.835938 222.496094 307.101562 215.773438 304.714844 208.613281 C 323.152344 186.054688 335.082031 169.566406 340.507812 159.371094 C 342.890625 156.984375 345.0625 155.03125 346.582031 153.730469 C 338.554688 155.25 332.914062 157.851562 325.753906 155.25 C 340.289062 152.429688 344.410156 133.773438 357.644531 142.019531 C 357.210938 134.640625 356.992188 128.351562 356.992188 122.929688 C 361.980469 128.351562 365.667969 132.039062 368.273438 133.992188 C 377.601562 130.738281 386.058594 130.304688 394.085938 131.605469 C 398.859375 132.472656 432.046875 139.199219 440.726562 137.246094 C 433.785156 140.28125 429.878906 144.402344 422.070312 144.402344 C 441.59375 158.722656 458.078125 179.980469 475 186.488281 C 467.40625 186.054688 458.730469 184.535156 448.75 181.496094 C 463.503906 192.996094 473.046875 207.527344 476.953125 225.101562 C 470.226562 219.242188 464.371094 215.339844 459.597656 213.386719 C 461.117188 234.425781 466.324219 257.636719 475.214844 271.304688 C 466.972656 264.144531 460.25 268.269531 454.390625 264.578125 C 456.34375 286.488281 455.910156 307.964844 466.324219 319.246094 C 443.980469 311 435.519531 294.515625 428.792969 286.488281 C 428.144531 301.675781 428.578125 314.6875 429.878906 325.320312 C 446.367188 345.492188 447.015625 359.59375 471.3125 367.617188 C 490.835938 375.644531 506.671875 393.648438 518.816406 421.199219 C 533.785156 416.859375 547.886719 422.5 561.117188 438.335938 C 570.011719 444.410156 581.941406 447.664062 597.128906 447.882812 C 587.582031 449.832031 579.558594 450.265625 572.613281 449.398438 C 587.582031 455.039062 596.910156 464.148438 601.03125 476.296875 C 597.5625 472.394531 594.308594 470.441406 591.269531 470.441406 C 593.65625 485.84375 602.769531 496.90625 618.386719 503.414062 C 612.09375 504.0625 606.671875 504.0625 602.332031 502.980469 C 600.597656 520.550781 605.585938 536.386719 617.300781 550.269531 C 584.328125 556.125 568.710938 542.027344 570.878906 507.753906 C 566.109375 488.664062 555.042969 475.214844 537.691406 467.1875 C 527.929688 459.8125 521.636719 451.351562 518.816406 442.242188 C 511.007812 464.367188 503.851562 481.070312 497.34375 492.566406 C 499.730469 517.730469 518.601562 530.964844 515.996094 538.554688 C 508.1875 573.914062 503.851562 600.378906 503.199219 618.167969 C 490.402344 620.335938 489.535156 622.289062 492.785156 627.710938 C 494.738281 638.773438 476.300781 645.066406 454.390625 639.425781 C 458.511719 627.058594 470.226562 615.5625 480.855469 610.355469 C 494.523438 576.949219 497.34375 554.175781 489.75 541.808594 C 478.46875 530.09375 469.578125 519.25 462.632812 509.488281 C 462.632812 511.222656 462.851562 512.957031 462.851562 514.695312 C 463.71875 523.804688 465.019531 531.179688 465.886719 539.421875 C 467.839844 551.136719 462.851562 554.175781 455.476562 560.898438 C 415.5625 602.546875 422.9375 614.480469 417.949219 616.648438 C 423.804688 637.253906 403.199219 636.605469 383.023438 632.699219 C 383.457031 623.371094 395.171875 613.828125 403.199219 607.972656 C 417.296875 578.902344 434.652344 547.230469 442.894531 538.988281 C 438.988281 525.972656 426.84375 513.175781 424.023438 490.613281 C 422.070312 474.78125 424.890625 457.640625 403.414062 446.363281 C 404.714844 446.144531 405.800781 445.710938 406.886719 445.710938 C 404.714844 445.496094 402.546875 445.496094 400.160156 445.710938 C 363.066406 438.988281 338.335938 410.136719 330.3125 372.609375 C 344.410156 371.089844 354.824219 363.929688 363.285156 355.039062 C 349.832031 363.929688 322.066406 368.488281 310.136719 362.414062 C 285.40625 349.832031 268.921875 340.285156 258.941406 336.816406 C 250.265625 345.492188 242.890625 360.460938 236.164062 381.71875 C 235.515625 384.320312 234.429688 386.273438 230.960938 385.625 C 232.910156 389.09375 244.410156 387.140625 247.664062 394.734375 C 247.878906 406.230469 244.191406 415.125 236.597656 421.417969 C 224.234375 412.304688 217.511719 399.289062 215.992188 382.804688 C 224.667969 364.148438 232.261719 345.277344 238.984375 326.402344 C 243.757812 317.292969 251.785156 312.738281 262.628906 312.738281 C 281.285156 321.195312 296.46875 324.449219 308.183594 322.714844 C 306.667969 314.039062 315.34375 307.3125 315.992188 301.238281 C 312.738281 309.050781 302.328125 314.90625 302.109375 319.679688 C 293 316.640625 280.851562 306.664062 265.234375 289.308594 C 245.277344 267.183594 234.648438 265.882812 189.742188 268.703125 C 186.707031 268.703125 184.753906 267.398438 183.886719 264.578125 C 179.332031 268.484375 183.234375 274.339844 176.726562 278.898438 C 167.402344 279.113281 158.289062 275.859375 149.613281 269.785156 C 163.929688 258.722656 175.210938 251.78125 183.671875 248.960938 C 206.882812 252.648438 225.96875 253.300781 240.503906 250.695312 C 251.132812 250.261719 262.195312 255.6875 273.476562 267.183594 C 287.578125 272.390625 298.855469 277.160156 307.316406 281.71875 C 314.910156 273.257812 324.886719 267.617188 337.6875 264.796875 C 345.277344 245.058594 378.683594 220.542969 386.277344 188.222656 C 380.203125 205.359375 370.007812 213.601562 355.691406 213.167969 C 339.421875 218.59375 328.792969 225.316406 324.019531 233.125 C 317.078125 232.042969 312.304688 230.738281 309.917969 228.789062 Z M 309.917969 228.789062 " fill-opacity="1" fill-rule="evenodd"/></g></svg>