<svg xmlns="http://www.w3.org/2000/svg" xmlns:xlink="http://www.w3.org/1999/xlink" width="1024" zoomAndPan="magnify" viewBox="0 0 768 767.999994" height="1024" preserveAspectRatio="xMidYMid meet" version="1.0"><defs><clipPath id="a6f8781aae"><path d="M 146 167 L 620 167 L 620 604.660156 L 146 604.660156 Z M 146 167 " clip-rule="nonzero"/></clipPath></defs><path fill="#ffffff" d="M 279.117188 278.625 C 239.527344 291.53125 253.054688 315.582031 253.054688 315.582031 C 288.742188 312.449219 293.421875 281.878906 294.03125 273.691406 C 290.609375 274.882812 285.910156 276.445312 279.554688 278.480469 C 279.40625 278.53125 279.261719 278.578125 279.117188 278.625 " fill-opacity="1" fill-rule="nonzero"/><path fill="#ffffff" d="M 194 410.59375 C 194 415.664062 189.890625 419.769531 184.824219 419.769531 C 179.753906 419.769531 175.644531 415.664062 175.644531 410.59375 C 175.644531 405.523438 179.753906 401.417969 184.824219 401.417969 C 189.890625 401.417969 194 405.523438 194 410.59375 " fill-opacity="1" fill-rule="nonzero"/><g clip-path="url(#a6f8781aae)"><path fill="#ffffff" d="M 614.828125 520.761719 C 614.566406 520.449219 613.234375 518.886719 610.539062 516.507812 C 594.289062 499.859375 529.09375 439.480469 435.855469 436.722656 C 435.738281 436.71875 435.625 436.714844 435.507812 436.714844 C 433.730469 436.714844 432.066406 437.167969 430.558594 437.902344 C 431.753906 438.132812 484.523438 448.445312 519.917969 480.398438 C 500.632812 477.023438 477.792969 474.691406 450.867188 474.195312 C 374.609375 472.675781 318.644531 503.226562 285.644531 528.375 C 298.554688 507.242188 318.128906 488.3125 337.292969 469.78125 C 347.074219 460.320312 356.3125 451.382812 364.789062 442.097656 C 382.757812 422.40625 385.820312 397.632812 383.574219 375.917969 C 383.574219 375.917969 383.371094 331.949219 345.609375 311.511719 C 345.609375 311.511719 360.234375 349.859375 345.980469 371.285156 C 336.355469 385.296875 314.691406 394.046875 287.984375 394.699219 C 247.34375 395.691406 229.558594 424.285156 224.683594 442.703125 C 205.410156 456.628906 192.746094 451.8125 191.492188 451.28125 C 188.984375 449.941406 184.96875 447.136719 182.941406 445.300781 L 169.371094 433.019531 C 169.160156 432.6875 168.929688 432.023438 168.886719 431.632812 C 168.335938 426.398438 171.023438 421.628906 170.246094 416.265625 C 169.269531 409.546875 167.566406 405.082031 171.394531 399.070312 C 174.484375 394.210938 181.230469 394.378906 183.984375 390.195312 C 196.800781 370.683594 209.632812 351.183594 222.460938 331.675781 C 225.765625 326.652344 228.070312 318.941406 228.070312 312.929688 L 228.070312 298.164062 C 228.070312 296.628906 229.105469 293.160156 229.949219 291.871094 L 263.367188 240.8125 C 266.953125 235.339844 268.796875 226.988281 267.851562 220.507812 L 263.59375 191.382812 C 293.65625 195.105469 312.523438 224.96875 312.523438 224.96875 C 312.523438 224.96875 313.992188 224.792969 316.703125 224.597656 L 319.949219 224.304688 C 320.835938 224.226562 395.886719 218.082031 463.960938 254.707031 C 519.910156 283.738281 575.007812 339.539062 596.832031 445.972656 C 597.070312 444.910156 597.207031 443.8125 597.121094 442.667969 C 591.117188 363.902344 563.035156 302.804688 513.652344 261.078125 C 442.910156 201.292969 351.226562 200.199219 325.019531 201.253906 C 290.816406 163.875 242.066406 165.785156 238.859375 169.554688 C 235.652344 173.324219 239.421875 183.066406 240.15625 188.066406 L 245.375 223.773438 C 245.496094 224.84375 244.917969 227.472656 244.363281 228.375 L 210.945312 279.433594 C 207.707031 284.375 205.359375 292.257812 205.359375 298.164062 L 205.359375 312.929688 C 205.359375 314.460938 204.324219 317.917969 203.484375 319.195312 C 190.699219 338.640625 177.914062 358.085938 165.128906 377.523438 C 161.175781 383.542969 153.378906 385.78125 150.210938 392.355469 C 147 399.015625 150.164062 407.15625 148.761719 414.203125 C 147.847656 418.8125 147.214844 423.496094 146.445312 428.128906 C 145.1875 435.6875 148.277344 444.5625 153.957031 449.707031 L 167.703125 462.140625 C 171.191406 465.300781 176.976562 469.328125 181.160156 471.511719 C 182.25 472.078125 208.199219 485.101562 241.980469 458.074219 L 245.394531 455.34375 L 246.09375 451.027344 C 246.3125 449.6875 251.824219 418.300781 288.535156 417.40625 C 320.019531 416.636719 346.769531 405.90625 361.460938 388.410156 C 361.382812 402 357.996094 415.84375 348.011719 426.789062 C 340.015625 435.546875 331.96875 445.335938 321.5 453.453125 C 230.34375 524.15625 244.777344 604.101562 244.777344 604.101562 L 268.675781 574.863281 C 269.320312 574.074219 333.75 496.859375 445.890625 496.859375 C 447.398438 496.859375 448.925781 496.875 450.445312 496.902344 C 546 498.679688 584.464844 524.300781 594.480469 532.625 C 596.320312 534.492188 597.304688 535.582031 597.382812 535.667969 C 605.742188 545.113281 612.613281 541.03125 615.179688 538.839844 C 617.75 536.644531 622.851562 530.496094 614.828125 520.761719 " fill-opacity="1" fill-rule="nonzero"/></g></svg>