<svg xmlns="http://www.w3.org/2000/svg" xmlns:xlink="http://www.w3.org/1999/xlink" width="1024" zoomAndPan="magnify" viewBox="0 0 768 767.999994" height="1024" preserveAspectRatio="xMidYMid meet" version="1.0"><defs><clipPath id="e7fb8bc678"><path d="M 149.613281 122.84375 L 618.363281 122.84375 L 618.363281 642 L 149.613281 642 Z M 149.613281 122.84375 " clip-rule="nonzero"/></clipPath></defs><g clip-path="url(#e7fb8bc678)"><path fill="#000000" d="M 309.910156 228.726562 C 308.828125 222.4375 307.09375 215.71875 304.707031 208.5625 C 323.144531 186.015625 335.074219 169.539062 340.496094 159.351562 C 342.882812 156.964844 345.050781 155.015625 346.570312 153.714844 C 338.542969 155.230469 332.90625 157.832031 325.746094 155.230469 C 340.28125 152.414062 344.402344 133.769531 357.632812 142.007812 C 357.199219 134.636719 356.980469 128.347656 356.980469 122.929688 C 361.972656 128.347656 365.660156 132.035156 368.261719 133.984375 C 377.589844 130.734375 386.046875 130.300781 394.074219 131.601562 C 398.847656 132.46875 432.035156 139.1875 440.710938 137.238281 C 433.769531 140.273438 429.863281 144.390625 422.054688 144.390625 C 441.578125 158.699219 458.0625 179.945312 474.984375 186.449219 C 467.390625 186.015625 458.714844 184.5 448.738281 181.464844 C 463.488281 192.953125 473.03125 207.480469 476.933594 225.039062 C 470.210938 219.1875 464.355469 215.285156 459.582031 213.332031 C 461.101562 234.363281 466.304688 257.558594 475.199219 271.21875 C 466.957031 264.0625 460.234375 268.183594 454.375 264.496094 C 456.328125 286.394531 455.894531 307.855469 466.304688 319.128906 C 443.964844 310.890625 435.503906 294.414062 428.78125 286.394531 C 428.128906 301.570312 428.5625 314.578125 429.863281 325.199219 C 446.351562 345.363281 447 359.453125 471.296875 367.476562 C 490.816406 375.496094 506.652344 393.492188 518.800781 421.023438 C 533.765625 416.6875 547.867188 422.324219 561.097656 438.152344 C 569.992188 444.222656 581.921875 447.472656 597.105469 447.691406 C 587.5625 449.640625 579.535156 450.074219 572.59375 449.207031 C 587.5625 454.84375 596.886719 463.953125 601.007812 476.09375 C 597.539062 472.191406 594.285156 470.238281 591.25 470.238281 C 593.632812 485.632812 602.746094 496.6875 618.363281 503.191406 C 612.074219 503.84375 606.648438 503.84375 602.3125 502.757812 C 600.574219 520.320312 605.566406 536.144531 617.277344 550.019531 C 584.308594 555.875 568.691406 541.78125 570.859375 507.527344 C 566.085938 488.449219 555.023438 475.007812 537.671875 466.988281 C 527.910156 459.613281 521.621094 451.160156 518.800781 442.054688 C 510.992188 464.167969 503.832031 480.863281 497.324219 492.351562 C 499.710938 517.5 518.582031 530.726562 515.980469 538.3125 C 508.171875 573.652344 503.832031 600.101562 503.183594 617.878906 C 490.382812 620.046875 489.515625 621.996094 492.769531 627.417969 C 494.722656 638.472656 476.285156 644.761719 454.375 639.125 C 458.496094 626.765625 470.210938 615.277344 480.839844 610.074219 C 494.503906 576.6875 497.324219 553.921875 489.734375 541.566406 C 478.453125 529.859375 469.558594 519.019531 462.617188 509.261719 C 462.617188 510.996094 462.835938 512.730469 462.835938 514.464844 C 463.703125 523.570312 465.003906 530.941406 465.871094 539.179688 C 467.824219 550.886719 462.835938 553.921875 455.460938 560.644531 C 415.546875 602.269531 422.921875 614.191406 417.933594 616.359375 C 423.792969 636.957031 403.183594 636.304688 383.011719 632.402344 C 383.445312 623.082031 395.160156 613.542969 403.183594 607.6875 C 417.285156 578.636719 434.636719 546.984375 442.878906 538.746094 C 438.976562 525.738281 426.828125 512.949219 424.007812 490.402344 C 422.054688 474.574219 424.875 457.445312 403.402344 446.171875 C 404.703125 445.957031 405.789062 445.523438 406.871094 445.523438 C 404.703125 445.304688 402.535156 445.304688 400.148438 445.523438 C 363.054688 438.800781 338.328125 409.96875 330.300781 372.460938 C 344.402344 370.945312 354.8125 363.789062 363.273438 354.902344 C 349.824219 363.789062 322.058594 368.34375 310.128906 362.273438 C 285.402344 349.699219 268.914062 340.160156 258.9375 336.691406 C 250.261719 345.363281 242.886719 360.320312 236.160156 381.566406 C 235.511719 384.167969 234.425781 386.121094 230.957031 385.46875 C 232.90625 388.9375 244.402344 386.988281 247.65625 394.574219 C 247.875 406.066406 244.1875 414.953125 236.59375 421.242188 C 224.230469 412.136719 217.507812 399.128906 215.988281 382.652344 C 224.664062 364.007812 232.257812 345.144531 238.980469 326.285156 C 243.753906 317.179688 251.777344 312.625 262.625 312.625 C 281.28125 321.082031 296.464844 324.332031 308.175781 322.597656 C 306.65625 313.925781 315.335938 307.207031 315.984375 301.136719 C 312.730469 308.941406 302.320312 314.792969 302.101562 319.5625 C 292.992188 316.527344 280.84375 306.554688 265.226562 289.210938 C 245.273438 267.097656 234.644531 265.796875 189.742188 268.617188 C 186.703125 268.617188 184.753906 267.316406 183.886719 264.496094 C 179.328125 268.398438 183.234375 274.253906 176.726562 278.804688 C 167.398438 279.023438 158.289062 275.769531 149.613281 269.699219 C 163.929688 258.644531 175.207031 251.707031 183.667969 248.886719 C 206.878906 252.574219 225.964844 253.222656 240.5 250.621094 C 251.128906 250.1875 262.191406 255.609375 273.46875 267.097656 C 287.570312 272.300781 298.847656 277.070312 307.308594 281.625 C 314.902344 273.167969 324.878906 267.53125 337.675781 264.714844 C 345.269531 244.984375 378.671875 220.488281 386.265625 188.183594 C 380.191406 205.3125 369.996094 213.550781 355.679688 213.117188 C 339.414062 218.535156 328.785156 225.257812 324.011719 233.0625 C 317.070312 231.976562 312.296875 230.675781 309.910156 228.726562 Z M 309.910156 228.726562 " fill-opacity="1" fill-rule="evenodd"/></g></svg>