<svg xmlns="http://www.w3.org/2000/svg" xmlns:xlink="http://www.w3.org/1999/xlink" width="459" zoomAndPan="magnify" viewBox="0 0 344.25 584.999983" height="780" preserveAspectRatio="xMidYMid meet" version="1.0"><defs><clipPath id="1051a03343"><path d="M 136.4375 174.953125 L 205.953125 174.953125 L 205.953125 244.46875 L 136.4375 244.46875 Z M 136.4375 174.953125 " clip-rule="nonzero"/></clipPath><clipPath id="4c633da846"><path d="M 171.195312 174.953125 C 152 174.953125 136.4375 190.515625 136.4375 209.710938 C 136.4375 228.90625 152 244.46875 171.195312 244.46875 C 190.394531 244.46875 205.953125 228.90625 205.953125 209.710938 C 205.953125 190.515625 190.394531 174.953125 171.195312 174.953125 Z M 171.195312 174.953125 " clip-rule="nonzero"/></clipPath><clipPath id="05df7d7040"><path d="M 0 224.753906 L 342.394531 224.753906 L 342.394531 567.148438 L 0 567.148438 Z M 0 224.753906 " clip-rule="nonzero"/></clipPath><clipPath id="ac30d24bfc"><path d="M 171.195312 224.753906 C 76.648438 224.753906 0 301.402344 0 395.953125 C 0 490.5 76.648438 567.148438 171.195312 567.148438 C 265.746094 567.148438 342.394531 490.5 342.394531 395.953125 C 342.394531 301.402344 265.746094 224.753906 171.195312 224.753906 Z M 171.195312 224.753906 " clip-rule="nonzero"/></clipPath><clipPath id="15cf4071ca"><path d="M 0 372.8125 L 342.773438 372.8125 L 342.773438 583.75 L 0 583.75 Z M 0 372.8125 " clip-rule="nonzero"/></clipPath><clipPath id="1455f333b8"><path d="M 35.921875 372.8125 L 306.472656 372.8125 C 326.308594 372.8125 342.394531 388.894531 342.394531 408.734375 L 342.394531 547.828125 C 342.394531 567.667969 326.308594 583.75 306.472656 583.75 L 35.921875 583.75 C 16.082031 583.75 0 567.667969 0 547.828125 L 0 408.734375 C 0 388.894531 16.082031 372.8125 35.921875 372.8125 Z M 35.921875 372.8125 " clip-rule="nonzero"/></clipPath><clipPath id="70a31936b3"><path d="M 136.4375 0.636719 L 204.65625 0.636719 L 204.65625 203 L 136.4375 203 Z M 136.4375 0.636719 " clip-rule="nonzero"/></clipPath><clipPath id="815049767f"><path d="M 170.546875 0.636719 L 204.65625 203.023438 L 136.4375 203.023438 Z M 170.546875 0.636719 " clip-rule="nonzero"/></clipPath><clipPath id="a771e339be"><path d="M 0 452.015625 L 343.042969 452.015625 L 343.042969 504.542969 L 0 504.542969 Z M 0 452.015625 " clip-rule="nonzero"/></clipPath><clipPath id="f30c09c527"><path d="M 144.277344 224.75 L 196.804688 224.75 L 196.804688 478.273438 L 144.277344 478.273438 Z M 144.277344 224.75 " clip-rule="nonzero"/></clipPath></defs><g clip-path="url(#1051a03343)"><g clip-path="url(#4c633da846)"><path fill="#ad8330" d="M 136.4375 174.953125 L 205.953125 174.953125 L 205.953125 244.46875 L 136.4375 244.46875 Z M 136.4375 174.953125 " fill-opacity="1" fill-rule="nonzero"/></g></g><g clip-path="url(#05df7d7040)"><g clip-path="url(#ac30d24bfc)"><path fill="#ffffff" d="M 0 224.753906 L 342.394531 224.753906 L 342.394531 567.148438 L 0 567.148438 Z M 0 224.753906 " fill-opacity="1" fill-rule="nonzero"/></g></g><g clip-path="url(#15cf4071ca)"><g clip-path="url(#1455f333b8)"><path fill="#ffffff" d="M 0 372.8125 L 342.773438 372.8125 L 342.773438 583.75 L 0 583.75 Z M 0 372.8125 " fill-opacity="1" fill-rule="nonzero"/></g></g><g clip-path="url(#70a31936b3)"><g clip-path="url(#815049767f)"><path fill="#ad8330" d="M 136.4375 0.636719 L 204.65625 0.636719 L 204.65625 202.894531 L 136.4375 202.894531 Z M 136.4375 0.636719 " fill-opacity="1" fill-rule="nonzero"/></g></g><g clip-path="url(#a771e339be)"><path fill="#737373" d="M 0 452.015625 L 343.0625 452.015625 L 343.0625 504.542969 L 0 504.542969 Z M 0 452.015625 " fill-opacity="1" fill-rule="nonzero"/></g><g clip-path="url(#f30c09c527)"><path fill="#737373" d="M 196.804688 224.75 L 196.804688 478.355469 L 144.277344 478.355469 L 144.277344 224.75 Z M 196.804688 224.75 " fill-opacity="1" fill-rule="nonzero"/></g></svg>