<svg xmlns="http://www.w3.org/2000/svg" xmlns:xlink="http://www.w3.org/1999/xlink" width="1024" zoomAndPan="magnify" viewBox="0 0 768 767.999994" height="1024" preserveAspectRatio="xMidYMid meet" version="1.0"><defs><clipPath id="73976f98ec"><path d="M 348.839844 266.503906 L 418.507812 266.503906 L 418.507812 336.171875 L 348.839844 336.171875 Z M 348.839844 266.503906 " clip-rule="nonzero"/></clipPath><clipPath id="b66f1de524"><path d="M 383.675781 266.503906 C 364.4375 266.503906 348.839844 282.101562 348.839844 301.339844 C 348.839844 320.578125 364.4375 336.171875 383.675781 336.171875 C 402.914062 336.171875 418.507812 320.578125 418.507812 301.339844 C 418.507812 282.101562 402.914062 266.503906 383.675781 266.503906 Z M 383.675781 266.503906 " clip-rule="nonzero"/></clipPath><clipPath id="b37772fc0b"><path d="M 212.105469 316.417969 L 555.246094 316.417969 L 555.246094 659.554688 L 212.105469 659.554688 Z M 212.105469 316.417969 " clip-rule="nonzero"/></clipPath><clipPath id="e13ae0fd73"><path d="M 383.675781 316.417969 C 288.921875 316.417969 212.105469 393.230469 212.105469 487.984375 C 212.105469 582.742188 288.921875 659.554688 383.675781 659.554688 C 478.429688 659.554688 555.246094 582.742188 555.246094 487.984375 C 555.246094 393.230469 478.429688 316.417969 383.675781 316.417969 Z M 383.675781 316.417969 " clip-rule="nonzero"/></clipPath><clipPath id="042db02223"><path d="M 212.105469 464.792969 L 555.628906 464.792969 L 555.628906 676.191406 L 212.105469 676.191406 Z M 212.105469 464.792969 " clip-rule="nonzero"/></clipPath><clipPath id="2d9dfc58d5"><path d="M 248.105469 464.792969 L 519.246094 464.792969 C 539.125 464.792969 555.246094 480.910156 555.246094 500.792969 L 555.246094 640.191406 C 555.246094 660.074219 539.125 676.191406 519.246094 676.191406 L 248.105469 676.191406 C 228.222656 676.191406 212.105469 660.074219 212.105469 640.191406 L 212.105469 500.792969 C 212.105469 480.910156 228.222656 464.792969 248.105469 464.792969 Z M 248.105469 464.792969 " clip-rule="nonzero"/></clipPath><clipPath id="814bf1df5f"><path d="M 348.839844 91.808594 L 417.210938 91.808594 L 417.210938 294.773438 L 348.839844 294.773438 Z M 348.839844 91.808594 " clip-rule="nonzero"/></clipPath><clipPath id="b827fa362c"><path d="M 383.023438 91.808594 L 417.210938 294.636719 L 348.839844 294.636719 Z M 383.023438 91.808594 " clip-rule="nonzero"/></clipPath><clipPath id="0bdee8e1e4"><path d="M 212.105469 544.171875 L 555.894531 544.171875 L 555.894531 596.8125 L 212.105469 596.8125 Z M 212.105469 544.171875 " clip-rule="nonzero"/></clipPath><clipPath id="9671930e49"><path d="M 356.699219 316.410156 L 409.339844 316.410156 L 409.339844 570.488281 L 356.699219 570.488281 Z M 356.699219 316.410156 " clip-rule="nonzero"/></clipPath></defs><g clip-path="url(#73976f98ec)"><g clip-path="url(#b66f1de524)"><path fill="#ad8330" d="M 348.839844 266.503906 L 418.507812 266.503906 L 418.507812 336.171875 L 348.839844 336.171875 Z M 348.839844 266.503906 " fill-opacity="1" fill-rule="nonzero"/></g></g><g clip-path="url(#b37772fc0b)"><g clip-path="url(#e13ae0fd73)"><path fill="#ffffff" d="M 212.105469 316.417969 L 555.246094 316.417969 L 555.246094 659.554688 L 212.105469 659.554688 Z M 212.105469 316.417969 " fill-opacity="1" fill-rule="nonzero"/></g></g><g clip-path="url(#042db02223)"><g clip-path="url(#2d9dfc58d5)"><path fill="#ffffff" d="M 212.105469 464.792969 L 555.628906 464.792969 L 555.628906 676.191406 L 212.105469 676.191406 Z M 212.105469 464.792969 " fill-opacity="1" fill-rule="nonzero"/></g></g><g clip-path="url(#814bf1df5f)"><g clip-path="url(#b827fa362c)"><path fill="#ad8330" d="M 348.839844 91.808594 L 417.210938 91.808594 L 417.210938 294.507812 L 348.839844 294.507812 Z M 348.839844 91.808594 " fill-opacity="1" fill-rule="nonzero"/></g></g><g clip-path="url(#0bdee8e1e4)"><path fill="#737373" d="M 212.105469 544.171875 L 555.914062 544.171875 L 555.914062 596.8125 L 212.105469 596.8125 Z M 212.105469 544.171875 " fill-opacity="1" fill-rule="nonzero"/></g><g clip-path="url(#9671930e49)"><path fill="#737373" d="M 409.339844 316.410156 L 409.339844 570.566406 L 356.699219 570.566406 L 356.699219 316.410156 Z M 409.339844 316.410156 " fill-opacity="1" fill-rule="nonzero"/></g></svg>