<svg xmlns="http://www.w3.org/2000/svg" xmlns:xlink="http://www.w3.org/1999/xlink" width="1024" zoomAndPan="magnify" viewBox="0 0 768 767.999994" height="1024" preserveAspectRatio="xMidYMid meet" version="1.0"><defs><clipPath id="4a12e7954e"><path d="M 208.191406 289.007812 L 560 289.007812 L 560 532.683594 L 208.191406 532.683594 Z M 208.191406 289.007812 " clip-rule="nonzero"/></clipPath><clipPath id="c1f47b01bf"><path d="M 244.191406 289.007812 L 523.808594 289.007812 C 533.359375 289.007812 542.515625 292.800781 549.265625 299.550781 C 556.015625 306.304688 559.808594 315.460938 559.808594 325.007812 L 559.808594 496.683594 C 559.808594 506.234375 556.015625 515.390625 549.265625 522.140625 C 542.515625 528.890625 533.359375 532.683594 523.808594 532.683594 L 244.191406 532.683594 C 234.640625 532.683594 225.484375 528.890625 218.734375 522.140625 C 211.984375 515.390625 208.191406 506.234375 208.191406 496.683594 L 208.191406 325.007812 C 208.191406 315.460938 211.984375 306.304688 218.734375 299.550781 C 225.484375 292.800781 234.640625 289.007812 244.191406 289.007812 Z M 244.191406 289.007812 " clip-rule="nonzero"/></clipPath><clipPath id="09f5d85705"><path d="M 253 235 L 515 235 L 515 486.472656 L 253 486.472656 Z M 253 235 " clip-rule="nonzero"/></clipPath><clipPath id="ef583da192"><path d="M 289.398438 235.316406 L 478.601562 235.316406 C 488.148438 235.316406 497.304688 239.109375 504.058594 245.859375 C 510.808594 252.609375 514.601562 261.765625 514.601562 271.316406 L 514.601562 450.472656 C 514.601562 460.019531 510.808594 469.175781 504.058594 475.929688 C 497.304688 482.679688 488.148438 486.472656 478.601562 486.472656 L 289.398438 486.472656 C 279.851562 486.472656 270.695312 482.679688 263.941406 475.929688 C 257.191406 469.175781 253.398438 460.019531 253.398438 450.472656 L 253.398438 271.316406 C 253.398438 261.765625 257.191406 252.609375 263.941406 245.859375 C 270.695312 239.109375 279.851562 235.316406 289.398438 235.316406 Z M 289.398438 235.316406 " clip-rule="nonzero"/></clipPath><clipPath id="d432e38bc1"><path d="M 358.320312 250.472656 L 409.679688 250.472656 L 409.679688 327.707031 L 358.320312 327.707031 Z M 358.320312 250.472656 " clip-rule="nonzero"/></clipPath><clipPath id="af19d9ec05"><path d="M 384 250.472656 C 369.816406 250.472656 358.320312 267.726562 358.320312 289.007812 C 358.320312 310.289062 369.816406 327.542969 384 327.542969 C 398.183594 327.542969 409.679688 310.289062 409.679688 289.007812 C 409.679688 267.726562 398.183594 250.472656 384 250.472656 Z M 384 250.472656 " clip-rule="nonzero"/></clipPath><clipPath id="b6661736cf"><path d="M 419.195312 269.738281 L 444.871094 269.738281 L 444.871094 308.359375 L 419.195312 308.359375 Z M 419.195312 269.738281 " clip-rule="nonzero"/></clipPath><clipPath id="5d88e487b5"><path d="M 432.035156 269.738281 C 424.941406 269.738281 419.195312 278.367188 419.195312 289.007812 C 419.195312 299.648438 424.941406 308.277344 432.035156 308.277344 C 439.125 308.277344 444.871094 299.648438 444.871094 289.007812 C 444.871094 278.367188 439.125 269.738281 432.035156 269.738281 Z M 432.035156 269.738281 " clip-rule="nonzero"/></clipPath><clipPath id="888364b51c"><path d="M 322.894531 269.738281 L 348.570312 269.738281 L 348.570312 308.359375 L 322.894531 308.359375 Z M 322.894531 269.738281 " clip-rule="nonzero"/></clipPath><clipPath id="4346f9bdd7"><path d="M 335.730469 269.738281 C 328.640625 269.738281 322.894531 278.367188 322.894531 289.007812 C 322.894531 299.648438 328.640625 308.277344 335.730469 308.277344 C 342.824219 308.277344 348.570312 299.648438 348.570312 289.007812 C 348.570312 278.367188 342.824219 269.738281 335.730469 269.738281 Z M 335.730469 269.738281 " clip-rule="nonzero"/></clipPath></defs><g clip-path="url(#4a12e7954e)"><g clip-path="url(#c1f47b01bf)"><path fill="#000000" d="M 208.191406 289.007812 L 559.429688 289.007812 L 559.429688 532.683594 L 208.191406 532.683594 Z M 208.191406 289.007812 " fill-opacity="1" fill-rule="nonzero"/></g></g><g clip-path="url(#09f5d85705)"><g clip-path="url(#ef583da192)"><path fill="#000000" d="M 253.398438 235.316406 L 514.367188 235.316406 L 514.367188 486.472656 L 253.398438 486.472656 Z M 253.398438 235.316406 " fill-opacity="1" fill-rule="nonzero"/></g></g><g clip-path="url(#d432e38bc1)"><g clip-path="url(#af19d9ec05)"><path fill="#007698" d="M 358.320312 250.472656 L 409.679688 250.472656 L 409.679688 327.507812 L 358.320312 327.507812 Z M 358.320312 250.472656 " fill-opacity="1" fill-rule="nonzero"/></g></g><g clip-path="url(#b6661736cf)"><g clip-path="url(#5d88e487b5)"><path fill="#fcb040" d="M 419.195312 269.738281 L 444.871094 269.738281 L 444.871094 308.257812 L 419.195312 308.257812 Z M 419.195312 269.738281 " fill-opacity="1" fill-rule="nonzero"/></g></g><g clip-path="url(#888364b51c)"><g clip-path="url(#4346f9bdd7)"><path fill="#fcb040" d="M 322.894531 269.738281 L 348.570312 269.738281 L 348.570312 308.257812 L 322.894531 308.257812 Z M 322.894531 269.738281 " fill-opacity="1" fill-rule="nonzero"/></g></g></svg>