<svg xmlns="http://www.w3.org/2000/svg" xmlns:xlink="http://www.w3.org/1999/xlink" width="1024" zoomAndPan="magnify" viewBox="0 0 768 767.999994" height="1024" preserveAspectRatio="xMidYMid meet" version="1.0"><defs><clipPath id="7880cb75ee"><path d="M 216.175781 216.121094 L 549.972656 216.121094 L 549.972656 626.851562 L 216.175781 626.851562 Z M 216.175781 216.121094 " clip-rule="nonzero"/></clipPath><clipPath id="cbca0be198"><path d="M 383.074219 216.121094 C 290.898438 216.121094 216.175781 307.9375 216.175781 421.199219 C 216.175781 534.460938 290.898438 626.277344 383.074219 626.277344 C 475.25 626.277344 549.972656 534.460938 549.972656 421.199219 C 549.972656 307.9375 475.25 216.121094 383.074219 216.121094 Z M 383.074219 216.121094 " clip-rule="nonzero"/></clipPath><clipPath id="17d068b4b1"><path d="M 172 367 L 238 367 L 238 437 L 172 437 Z M 172 367 " clip-rule="nonzero"/></clipPath><clipPath id="684eb41aed"><path d="M 167.398438 427.921875 L 177.113281 359.078125 L 237.265625 367.570312 L 227.546875 436.410156 Z M 167.398438 427.921875 " clip-rule="nonzero"/></clipPath><clipPath id="ba24746160"><path d="M 172.25 393.550781 L 237.25 367.667969 L 227.546875 436.410156 Z M 172.25 393.550781 " clip-rule="nonzero"/></clipPath><clipPath id="2cdba1753b"><path d="M 203 288 L 263 288 L 263 342 L 203 342 Z M 203 288 " clip-rule="nonzero"/></clipPath><clipPath id="15da51a580"><path d="M 190.636719 319.035156 L 216.214844 266.347656 L 262.25 288.691406 L 236.671875 341.378906 Z M 190.636719 319.035156 " clip-rule="nonzero"/></clipPath><clipPath id="e6c54a3f7e"><path d="M 203.40625 292.730469 L 262.210938 288.769531 L 236.671875 341.378906 Z M 203.40625 292.730469 " clip-rule="nonzero"/></clipPath><clipPath id="fdd095a02d"><path d="M 266 203 L 328 203 L 328 272 L 266 272 Z M 266 203 " clip-rule="nonzero"/></clipPath><clipPath id="a14b9b0a17"><path d="M 239.097656 223.1875 L 294.117188 184.496094 L 327.921875 232.570312 L 272.902344 271.257812 Z M 239.097656 223.1875 " clip-rule="nonzero"/></clipPath><clipPath id="0f2517385e"><path d="M 266.566406 203.871094 L 327.839844 232.625 L 272.902344 271.257812 Z M 266.566406 203.871094 " clip-rule="nonzero"/></clipPath><clipPath id="1d4bfc8da7"><path d="M 216.175781 452.777344 L 550 452.777344 L 550 626.277344 L 216.175781 626.277344 Z M 216.175781 452.777344 " clip-rule="nonzero"/></clipPath><clipPath id="c85e626905"><path d="M 252.175781 452.777344 L 513.972656 452.777344 C 523.519531 452.777344 532.679688 456.570312 539.429688 463.324219 C 546.179688 470.074219 549.972656 479.230469 549.972656 488.777344 L 549.972656 590.277344 C 549.972656 599.828125 546.179688 608.984375 539.429688 615.734375 C 532.679688 622.484375 523.519531 626.277344 513.972656 626.277344 L 252.175781 626.277344 C 242.625 626.277344 233.46875 622.484375 226.71875 615.734375 C 219.96875 608.984375 216.175781 599.828125 216.175781 590.277344 L 216.175781 488.777344 C 216.175781 479.230469 219.96875 470.074219 226.71875 463.324219 C 233.46875 456.570312 242.625 452.777344 252.175781 452.777344 Z M 252.175781 452.777344 " clip-rule="nonzero"/></clipPath><clipPath id="d446075152"><path d="M 429 201 L 487 201 L 487 268 L 429 268 Z M 429 201 " clip-rule="nonzero"/></clipPath><clipPath id="8fdf39d3d4"><path d="M 458.679688 184.558594 L 515.113281 218.167969 L 485.746094 267.472656 L 429.316406 233.863281 Z M 458.679688 184.558594 " clip-rule="nonzero"/></clipPath><clipPath id="9941f978b3"><path d="M 486.855469 201.335938 L 485.664062 267.421875 L 429.316406 233.863281 Z M 486.855469 201.335938 " clip-rule="nonzero"/></clipPath><clipPath id="432454de31"><path d="M 497 289 L 555 289 L 555 341 L 497 341 Z M 497 289 " clip-rule="nonzero"/></clipPath><clipPath id="ace640708c"><path d="M 538.128906 266.425781 L 569.960938 312.421875 L 529.777344 340.230469 L 497.945312 294.238281 Z M 538.128906 266.425781 " clip-rule="nonzero"/></clipPath><clipPath id="f11fd6175e"><path d="M 554.023438 289.390625 L 529.730469 340.164062 L 497.945312 294.238281 Z M 554.023438 289.390625 " clip-rule="nonzero"/></clipPath><clipPath id="2037c530ac"><path d="M 527 372 L 594 372 L 594 439 L 527 439 Z M 527 372 " clip-rule="nonzero"/></clipPath><clipPath id="214c853bc8"><path d="M 585.902344 359.183594 L 600.621094 425.898438 L 542.332031 438.757812 L 527.613281 372.042969 Z M 585.902344 359.183594 " clip-rule="nonzero"/></clipPath><clipPath id="8cdc838264"><path d="M 593.25 392.492188 L 542.308594 438.660156 L 527.613281 372.042969 Z M 593.25 392.492188 " clip-rule="nonzero"/></clipPath><clipPath id="8d5de27ddd"><path d="M 342.773438 141.722656 L 420.253906 141.722656 L 420.253906 227.675781 L 342.773438 227.675781 Z M 342.773438 141.722656 " clip-rule="nonzero"/></clipPath><clipPath id="d9802abdf5"><path d="M 381.515625 141.722656 C 360.117188 141.722656 342.773438 160.898438 342.773438 184.554688 C 342.773438 208.210938 360.117188 227.386719 381.515625 227.386719 C 402.910156 227.386719 420.253906 208.210938 420.253906 184.554688 C 420.253906 160.898438 402.910156 141.722656 381.515625 141.722656 Z M 381.515625 141.722656 " clip-rule="nonzero"/></clipPath><clipPath id="9b1333d098"><path d="M 222.644531 475.148438 L 546.195312 475.148438 L 546.195312 502.703125 L 222.644531 502.703125 Z M 222.644531 475.148438 " clip-rule="nonzero"/></clipPath><clipPath id="60a64aea34"><path d="M 229.792969 511.621094 L 257.703125 511.621094 L 257.703125 539.527344 L 229.792969 539.527344 Z M 229.792969 511.621094 " clip-rule="nonzero"/></clipPath><clipPath id="035c6f7bf0"><path d="M 243.746094 511.621094 C 236.039062 511.621094 229.792969 517.867188 229.792969 525.574219 C 229.792969 533.28125 236.039062 539.527344 243.746094 539.527344 C 251.453125 539.527344 257.703125 533.28125 257.703125 525.574219 C 257.703125 517.867188 251.453125 511.621094 243.746094 511.621094 Z M 243.746094 511.621094 " clip-rule="nonzero"/></clipPath><clipPath id="963a182fc7"><path d="M 286.996094 511.621094 L 314.90625 511.621094 L 314.90625 539.527344 L 286.996094 539.527344 Z M 286.996094 511.621094 " clip-rule="nonzero"/></clipPath><clipPath id="f85cc09d3a"><path d="M 300.953125 511.621094 C 293.246094 511.621094 286.996094 517.867188 286.996094 525.574219 C 286.996094 533.28125 293.246094 539.527344 300.953125 539.527344 C 308.660156 539.527344 314.90625 533.28125 314.90625 525.574219 C 314.90625 517.867188 308.660156 511.621094 300.953125 511.621094 Z M 300.953125 511.621094 " clip-rule="nonzero"/></clipPath><clipPath id="5207509f77"><path d="M 344.203125 511.621094 L 372.113281 511.621094 L 372.113281 539.527344 L 344.203125 539.527344 Z M 344.203125 511.621094 " clip-rule="nonzero"/></clipPath><clipPath id="f8daa1b63f"><path d="M 358.15625 511.621094 C 350.449219 511.621094 344.203125 517.867188 344.203125 525.574219 C 344.203125 533.28125 350.449219 539.527344 358.15625 539.527344 C 365.863281 539.527344 372.113281 533.28125 372.113281 525.574219 C 372.113281 517.867188 365.863281 511.621094 358.15625 511.621094 Z M 358.15625 511.621094 " clip-rule="nonzero"/></clipPath><clipPath id="498dc37d2d"><path d="M 401.40625 511.621094 L 429.316406 511.621094 L 429.316406 539.527344 L 401.40625 539.527344 Z M 401.40625 511.621094 " clip-rule="nonzero"/></clipPath><clipPath id="bc146d30cb"><path d="M 415.363281 511.621094 C 407.65625 511.621094 401.40625 517.867188 401.40625 525.574219 C 401.40625 533.28125 407.65625 539.527344 415.363281 539.527344 C 423.070312 539.527344 429.316406 533.28125 429.316406 525.574219 C 429.316406 517.867188 423.070312 511.621094 415.363281 511.621094 Z M 415.363281 511.621094 " clip-rule="nonzero"/></clipPath><clipPath id="e9ba3fbf26"><path d="M 458.21875 511.621094 L 486.128906 511.621094 L 486.128906 539.527344 L 458.21875 539.527344 Z M 458.21875 511.621094 " clip-rule="nonzero"/></clipPath><clipPath id="5c1abf9750"><path d="M 472.171875 511.621094 C 464.464844 511.621094 458.21875 517.867188 458.21875 525.574219 C 458.21875 533.28125 464.464844 539.527344 472.171875 539.527344 C 479.878906 539.527344 486.128906 533.28125 486.128906 525.574219 C 486.128906 517.867188 479.878906 511.621094 472.171875 511.621094 Z M 472.171875 511.621094 " clip-rule="nonzero"/></clipPath><clipPath id="93ef8c0a4c"><path d="M 513.664062 511.621094 L 541.574219 511.621094 L 541.574219 539.527344 L 513.664062 539.527344 Z M 513.664062 511.621094 " clip-rule="nonzero"/></clipPath><clipPath id="12149407bd"><path d="M 527.617188 511.621094 C 519.910156 511.621094 513.664062 517.867188 513.664062 525.574219 C 513.664062 533.28125 519.910156 539.527344 527.617188 539.527344 C 535.324219 539.527344 541.574219 533.28125 541.574219 525.574219 C 541.574219 517.867188 535.324219 511.621094 527.617188 511.621094 Z M 527.617188 511.621094 " clip-rule="nonzero"/></clipPath></defs><g clip-path="url(#7880cb75ee)"><g clip-path="url(#cbca0be198)"><path fill="#fcb040" d="M 216.175781 216.121094 L 549.972656 216.121094 L 549.972656 626.851562 L 216.175781 626.851562 Z M 216.175781 216.121094 " fill-opacity="1" fill-rule="nonzero"/></g></g><g clip-path="url(#17d068b4b1)"><g clip-path="url(#684eb41aed)"><g clip-path="url(#ba24746160)"><path fill="#fcb040" d="M 167.398438 427.921875 L 177.113281 359.078125 L 237.265625 367.570312 L 227.546875 436.410156 Z M 167.398438 427.921875 " fill-opacity="1" fill-rule="nonzero"/></g></g></g><g clip-path="url(#2cdba1753b)"><g clip-path="url(#15da51a580)"><g clip-path="url(#e6c54a3f7e)"><path fill="#fcb040" d="M 190.636719 319.035156 L 216.214844 266.347656 L 262.25 288.691406 L 236.671875 341.378906 Z M 190.636719 319.035156 " fill-opacity="1" fill-rule="nonzero"/></g></g></g><g clip-path="url(#fdd095a02d)"><g clip-path="url(#a14b9b0a17)"><g clip-path="url(#0f2517385e)"><path fill="#fcb040" d="M 239.097656 223.1875 L 294.117188 184.496094 L 327.921875 232.570312 L 272.902344 271.257812 Z M 239.097656 223.1875 " fill-opacity="1" fill-rule="nonzero"/></g></g></g><g clip-path="url(#1d4bfc8da7)"><g clip-path="url(#c85e626905)"><path fill="#fcb040" d="M 216.175781 452.777344 L 550.296875 452.777344 L 550.296875 626.277344 L 216.175781 626.277344 Z M 216.175781 452.777344 " fill-opacity="1" fill-rule="nonzero"/></g></g><g clip-path="url(#d446075152)"><g clip-path="url(#8fdf39d3d4)"><g clip-path="url(#9941f978b3)"><path fill="#fcb040" d="M 458.679688 184.558594 L 515.113281 218.167969 L 485.746094 267.472656 L 429.316406 233.863281 Z M 458.679688 184.558594 " fill-opacity="1" fill-rule="nonzero"/></g></g></g><g clip-path="url(#432454de31)"><g clip-path="url(#ace640708c)"><g clip-path="url(#f11fd6175e)"><path fill="#fcb040" d="M 538.128906 266.425781 L 569.960938 312.421875 L 529.777344 340.230469 L 497.945312 294.238281 Z M 538.128906 266.425781 " fill-opacity="1" fill-rule="nonzero"/></g></g></g><g clip-path="url(#2037c530ac)"><g clip-path="url(#214c853bc8)"><g clip-path="url(#8cdc838264)"><path fill="#fcb040" d="M 585.902344 359.183594 L 600.621094 425.898438 L 542.332031 438.757812 L 527.613281 372.042969 Z M 585.902344 359.183594 " fill-opacity="1" fill-rule="nonzero"/></g></g></g><g clip-path="url(#8d5de27ddd)"><g clip-path="url(#d9802abdf5)"><path fill="#ad8330" d="M 342.773438 141.722656 L 420.253906 141.722656 L 420.253906 227.375 L 342.773438 227.375 Z M 342.773438 141.722656 " fill-opacity="1" fill-rule="nonzero"/></g></g><g clip-path="url(#9b1333d098)"><path fill="#ffffff" d="M 222.644531 475.148438 L 546.207031 475.148438 L 546.207031 502.703125 L 222.644531 502.703125 Z M 222.644531 475.148438 " fill-opacity="1" fill-rule="nonzero"/></g><g clip-path="url(#60a64aea34)"><g clip-path="url(#035c6f7bf0)"><path fill="#ff3131" d="M 229.792969 511.621094 L 257.703125 511.621094 L 257.703125 539.527344 L 229.792969 539.527344 Z M 229.792969 511.621094 " fill-opacity="1" fill-rule="nonzero"/></g></g><g clip-path="url(#963a182fc7)"><g clip-path="url(#f85cc09d3a)"><path fill="#ff3131" d="M 286.996094 511.621094 L 314.90625 511.621094 L 314.90625 539.527344 L 286.996094 539.527344 Z M 286.996094 511.621094 " fill-opacity="1" fill-rule="nonzero"/></g></g><g clip-path="url(#5207509f77)"><g clip-path="url(#f8daa1b63f)"><path fill="#ff3131" d="M 344.203125 511.621094 L 372.113281 511.621094 L 372.113281 539.527344 L 344.203125 539.527344 Z M 344.203125 511.621094 " fill-opacity="1" fill-rule="nonzero"/></g></g><g clip-path="url(#498dc37d2d)"><g clip-path="url(#bc146d30cb)"><path fill="#ff3131" d="M 401.40625 511.621094 L 429.316406 511.621094 L 429.316406 539.527344 L 401.40625 539.527344 Z M 401.40625 511.621094 " fill-opacity="1" fill-rule="nonzero"/></g></g><g clip-path="url(#e9ba3fbf26)"><g clip-path="url(#5c1abf9750)"><path fill="#ff3131" d="M 458.21875 511.621094 L 486.128906 511.621094 L 486.128906 539.527344 L 458.21875 539.527344 Z M 458.21875 511.621094 " fill-opacity="1" fill-rule="nonzero"/></g></g><g clip-path="url(#93ef8c0a4c)"><g clip-path="url(#12149407bd)"><path fill="#ff3131" d="M 513.664062 511.621094 L 541.574219 511.621094 L 541.574219 539.527344 L 513.664062 539.527344 Z M 513.664062 511.621094 " fill-opacity="1" fill-rule="nonzero"/></g></g></svg>